<svg xmlns="http://www.w3.org/2000/svg" xmlns:svgjs="http://svgjs.com/svgjs" xmlns:xlink="http://www.w3.org/1999/xlink" width="288" height="288"><svg xmlns="http://www.w3.org/2000/svg" width="288" height="288" viewBox="0 0 16 16"><path fill="#fff" d="M4.641 3.206c.472 0 .897.041 1.284.125.388.081.716.219.994.406.275.188.487.438.644.75.15.309.225.697.225 1.156 0 .497-.112.909-.338 1.241-.228.331-.559.6-1.003.813.606.175 1.053.481 1.353.916.3.438.444.963.444 1.581 0 .5-.097.928-.287 1.291-.194.366-.456.662-.778.891-.325.231-.7.4-1.119.509-.416.109-.844.166-1.287.166h-4.772v-9.844h4.641zM4.359 7.181c.384 0 .703-.091.953-.275.25-.181.369-.481.369-.894 0-.228-.041-.419-.122-.566-.084-.147-.194-.263-.334-.344-.138-.084-.294-.141-.478-.172-.178-.034-.366-.05-.556-.05h-2.025v2.3h2.194zM4.478 11.372c.213 0 .416-.019.606-.063.194-.044.366-.109.509-.209.144-.097.266-.225.353-.394.088-.166.128-.378.128-.637 0-.506-.144-.869-.428-1.088-.284-.216-.662-.322-1.131-.322h-2.35v2.709h2.313zM11.331 11.338c.294.287.716.431 1.266.431.394 0 .738-.1 1.022-.3s.456-.412.522-.631h1.725c-.278.859-.697 1.469-1.272 1.838-.566.369-1.259.556-2.063.556-.563 0-1.066-.091-1.519-.269-.453-.181-.831-.434-1.15-.766-.309-.331-.553-.725-.725-1.188-.169-.459-.256-.969-.256-1.519 0-.534.088-1.031.262-1.491.178-.463.422-.859.747-1.194s.706-.6 1.156-.794c.447-.194.941-.291 1.488-.291.603 0 1.131.116 1.584.353.45.234.822.55 1.113.944s.497.847.625 1.353c.128.506.172 1.034.137 1.588h-5.147c0 .559.188 1.094.484 1.378zM13.578 7.594c-.231-.256-.628-.397-1.106-.397-.313 0-.572.053-.778.159-.203.106-.369.237-.497.394-.125.156-.213.325-.262.503-.05.172-.081.331-.091.469h3.188c-.047-.5-.219-.869-.453-1.128zM10.444 4h3.991v.972h-3.991v-.972z" class="color000 svgShape"/></svg></svg>