<svg xmlns="http://www.w3.org/2000/svg" viewBox="0 0 247 248"><g id="Layer_2" data-name="Layer 2"><g id="Layer_1-2" data-name="Layer 1"><path d="M87,5.61h0V206c-29.07-14.49-49.19-45.74-49.19-82A94.26,94.26,0,0,1,48.29,80.57L16.53,62.24A123,123,0,0,0,0,124c0,1.55,0,3.09.09,4.63,0,.32,0,.65,0,1,.07,1.46.16,2.92.27,4.37l.09,1c.11,1.25.24,2.49.39,3.73,0,.31.06.62.1.94.17,1.33.37,2.65.58,4,.08.53.17,1.06.26,1.59.19,1.13.4,2.26.63,3.38.15.73.31,1.45.46,2.17s.3,1.33.46,2q1,4,2.17,8l0,.09c.46,1.46.94,2.9,1.45,4.34l.19.54c.49,1.35,1,2.69,1.52,4l0,.13A124.29,124.29,0,0,0,87,242.38h0a123.9,123.9,0,0,0,30.57,5.45l.92.16V0l-.92.16A123.9,123.9,0,0,0,87,5.61Z"/><path d="M246.91,119.37c0-.32,0-.65,0-1-.07-1.46-.16-2.92-.27-4.37l-.09-1c-.11-1.25-.24-2.49-.39-3.73,0-.31-.06-.62-.1-.94-.17-1.33-.37-2.65-.58-4-.08-.53-.17-1.06-.26-1.59-.19-1.13-.4-2.26-.63-3.38-.15-.73-.31-1.45-.46-2.17s-.3-1.33-.46-2q-1-4-2.17-8l0-.09c-.46-1.46-.94-2.9-1.45-4.34l-.19-.54c-.49-1.35-1-2.69-1.52-4l-.05-.13A124.29,124.29,0,0,0,160,5.62h0A123.9,123.9,0,0,0,129.42.16L128.5,0V248l.92-.16A123.9,123.9,0,0,0,160,242.39h0V42c29.07,14.49,49.19,45.74,49.19,82a94.26,94.26,0,0,1-10.48,43.43l31.76,18.33A123,123,0,0,0,247,124C247,122.45,247,120.91,246.91,119.37Z"/></g></g></svg>