<?xml version="1.0" encoding="utf-8"?>
<!-- Generator: Adobe Illustrator 24.3.0, SVG Export Plug-In . SVG Version: 6.00 Build 0)  -->
<svg version="1.1" id="Layer_1" xmlns="http://www.w3.org/2000/svg" xmlns:xlink="http://www.w3.org/1999/xlink" x="0px" y="0px"
	 viewBox="0 0 2500 2311" style="enable-background:new 0 0 2500 2311;" xml:space="preserve">
<style type="text/css">
	.st0{fill:url(#SVGID_1_);}
</style>
<radialGradient id="SVGID_1_" cx="1553.4353" cy="334.2568" r="0.6631" gradientTransform="matrix(2500.001 0 0 2310.7834 -3882340 -771130.6875)" gradientUnits="userSpaceOnUse">
	<stop  offset="0" style="stop-color:#9FB8FF"/>
	<stop  offset="0.6" style="stop-color:#7E8BB6"/>
	<stop  offset="0.999" style="stop-color:#363F56"/>
</radialGradient>
<path class="st0" d="M1956.3,1223.5c-300.3,0-543.7,243.4-543.7,543.7c0,300.3,243.4,543.8,543.7,543.8
	c300.3,0,543.7-243.5,543.7-543.8C2500,1466.9,2256.6,1223.5,1956.3,1223.5L1956.3,1223.5z M543.7,1223.5
	C243.4,1223.5,0,1466.9,0,1767.2c0,300.3,243.4,543.7,543.7,543.7c300.3,0,543.7-243.4,543.7-543.7
	C1087.4,1466.9,844,1223.5,543.7,1223.5L543.7,1223.5L543.7,1223.5z M1793.7,543.8c0,300.3-243.4,543.8-543.7,543.8
	c-300.3,0-543.7-243.5-543.7-543.8S949.7,0.1,1250,0.1C1550.3,0.1,1793.7,243.5,1793.7,543.8L1793.7,543.8L1793.7,543.8z"/>
</svg>
