<?xml version="1.0" encoding="utf-8"?>
<!-- Generator: Adobe Illustrator 25.3.1, SVG Export Plug-In . SVG Version: 6.00 Build 0)  -->
<svg version="1.1" id="Layer_1" xmlns="http://www.w3.org/2000/svg" xmlns:xlink="http://www.w3.org/1999/xlink" x="0px" y="0px"
	 viewBox="0 0 1771 2499.8" style="enable-background:new 0 0 1771 2499.8;" xml:space="preserve">
<style type="text/css">
	.st0{fill:#626C89;}
	.st1{fill:#7E8BB6;}
	.st2{fill:#EBEBEB;}
</style>
<path class="st0" d="M0,245.7l161.2,1807.7l723.2,200.7l725.2-201L1771,245.7H0z M1471.5,1938l-586,162.5v-245.4l-453.8-126.3
	l-31.1-348.1H623l15.8,176.8l246.7,66.6v-353.8l0,0v-0.2H641.4l-4.3-49.8L627,1107.9l-5.3-59.5h263.7h0.1l0,0V821.5H350.9l-4.6-49.8
	l-10.1-112.4l-5.3-59.5h554.6V393.5h723.8L1471.5,1938z"/>
<polygon class="st1" points="1199.1,821.4 886.3,821.4 886.3,821.5 885.5,821.5 885.5,1048.4 1178.9,1048.4 "/>
<polygon class="st1" points="886.1,1624.2 886.1,1624 1133.4,1557.3 1159.2,1270.3 885.5,1270.3 885.5,1624.1 885.7,1624.2 "/>
<polygon class="st1" points="885.5,599.8 886.3,599.8 1441.5,599.8 1436.2,659.3 1381.7,1270.3 1381.6,1270.3 1343.9,1691.5 
	1340.6,1729 887.2,1854.7 887.2,1855.2 885.9,1855.2 885.5,1855.1 885.5,2100.5 1471.5,1938 1609.3,393.5 885.5,393.5 "/>
<polygon class="st2" points="886.3,599.8 885.5,599.8 885.5,599.8 "/>
<rect x="885.5" y="821.4" class="st2" width="0.8" height="0.1"/>
</svg>
