<?xml version="1.0" encoding="utf-8"?>
<!-- Generator: Adobe Illustrator 25.3.1, SVG Export Plug-In . SVG Version: 6.00 Build 0)  -->
<svg version="1.1" id="Layer_1" xmlns="http://www.w3.org/2000/svg" xmlns:xlink="http://www.w3.org/1999/xlink" x="0px" y="0px"
	 viewBox="0 0 1771 2500" style="enable-background:new 0 0 1771 2500;" xml:space="preserve">
<style type="text/css">
	.st0{fill:#7E8BB6;}
	.st1{fill:#626C89;}
	.st2{fill:#EBEBEB;}
	.st3{fill:#FFFFFF;}
</style>
<polygon class="st0" points="571.9,837 592.1,1064 884.7,1064 885.5,1064 885.5,837 884.7,837 "/>
<path class="st1" d="M0,245.7l161.2,1807.7l723.2,200.8l725.2-201.1L1771,245.7H0z M1471.5,1938.1l-586,162.5v-230.1l0,0l0,0l-1,0.3
	l-454.2-126.1l-31.1-348.1h222.6l15.8,176.8l246.9,66.7l0.2-0.1l0,0l0.8-0.2v-354.1h-0.8H389.4l-54.5-611l-5.3-59.5h555.2l0,0h0.8
	V393.6h723.9L1471.5,1938.1z"/>
<polygon class="st0" points="885.5,615.3 1440.1,615.3 1434.8,674.7 1424.7,787.1 1420.3,837 885.5,837 885.5,1064 885.5,1064 
	1340.3,1064 1400.1,1064 1394.7,1123.6 1342.6,1707.2 1339.3,1744.7 885.5,1870.5 885.5,2100.6 1471.5,1938.1 1609.4,393.6 
	885.5,393.6 "/>
<polygon class="st0" points="1157.7,1285.7 885.5,1285.7 885.5,1639.8 1132,1573.3 "/>
<polygon class="st2" points="885.5,1064 885.5,1064 884.7,1064 "/>
<polygon class="st3" points="884.7,615.3 885.5,615.3 885.5,615.3 "/>
<polygon class="st3" points="885.5,1639.8 884.7,1640 884.7,1640 "/>
</svg>
