<?xml version="1.0" encoding="utf-8"?>
<!-- Generator: Adobe Illustrator 24.3.0, SVG Export Plug-In . SVG Version: 6.00 Build 0)  -->
<svg version="1.1" id="Layer_1" xmlns="http://www.w3.org/2000/svg" xmlns:xlink="http://www.w3.org/1999/xlink" x="0px" y="0px"
	 viewBox="0 0 2500 2500.6" style="enable-background:new 0 0 2500 2500.6;" xml:space="preserve">
<style type="text/css">
	.st0{fill:#7E8BB6;}
</style>
<g>
	<path class="st0" d="M736.3,1011.8H625l-42.8,256.9l0,0h102.7c77.1-8.6,145.5-34.2,154.1-179.8
		C839,1037.5,796.2,1011.8,736.3,1011.8z"/>
	<path class="st0" d="M1883.6,1011.8h-111.3l-42.8,256.9h0h102.7c77.1-8.6,145.5-34.2,154.1-179.8
		C1986.3,1037.5,1943.5,1011.8,1883.6,1011.8z"/>
	<path class="st0" d="M1250,540.9C559.6,540.9,0,832.2,0,1191.6s559.6,650.7,1250,650.7s1250-291.3,1250-650.7
		S1940.4,540.9,1250,540.9z M702,1397.1H547.9l-34.2,179.8H351l137-693.5h316.8c137,8.6,205.5,77.1,205.5,196.9
		C1010.3,1285.8,847.6,1405.7,702,1397.1z M1346.6,1011.8h-128.4l-77.1,385.3H978.4l137-693.5h162.7l-34.2,179.8h154.1
		c137,8.6,188.4,77.1,171.2,162.7l-59.9,351H1338l59.9-316.8C1406.5,1037.5,1406.5,1011.8,1346.6,1011.8z M1849.3,1397.1h-154.1
		l-34.2,179.8h-162.7l137-693.5h316.8c137,8.6,205.5,77.1,205.5,196.9C2157.5,1285.8,1994.9,1405.7,1849.3,1397.1z"/>
</g>
</svg>
