<?xml version="1.0" encoding="utf-8"?>
<!-- Generator: Adobe Illustrator 25.3.1, SVG Export Plug-In . SVG Version: 6.00 Build 0)  -->
<svg version="1.1" id="Layer_1" xmlns="http://www.w3.org/2000/svg" xmlns:xlink="http://www.w3.org/1999/xlink" x="0px" y="0px"
	 viewBox="0 0 316.5 284.5" style="enable-background:new 0 0 316.5 284.5;" xml:space="preserve">
<style type="text/css">
	.st0{fill:#7E8BB6;}
</style>
<path class="st0" d="M176.4,1.2c-77.9-10-149.2,45-159.2,123s45,149.2,123,159.2l0,0c77.9,10,149.2-45.1,159.2-123
	S254.3,11.2,176.4,1.2z M242.8,91.9c-1.3,1.3-2.8,2.5-4.4,3.5c-0.1,0.1-0.2,0.2-0.3,0.2c-3.8,2.3-8.2,3.5-12.7,3.5
	c-3.5,0-6.8-0.7-9.8-2.1c0.1,0.3,0.2,0.6,0.2,0.9c0.8,2.1,1.2,4.2,1.1,6.5c-0.2,15.8-18.2,35.8-49.2,65.1l0,0l0,0l-1,0.9
	c-15,13.2-35.6,26.4-61.1,39.2l2.4,10.2c0.5,1.9-0.4,3.9-2.1,4.8c-0.1,0.1-0.2,0.1-0.3,0.2c0.2,0.4,0.3,0.9,0.1,1.3
	c-0.2,0.5-0.7,0.8-1.3,0.8h-0.1l-29-2c-2.1-0.2-3.6-2.1-3.4-4.1c0.1-0.9,0.5-1.7,1.1-2.3l12.2-12.2l45.9-45.9l5.2-5.2l5.2-5.2
	l-21.3,4.6c-0.3,0.1-0.5,0.1-0.8,0.1c-2.1,0-3.8-1.7-3.8-3.8c0-1,0.4-2,1.1-2.7l14.5-14.5l0,0c0.1-0.2,0.2-0.3,0.3-0.4
	C179.3,85.5,193,79.4,203,84.6c-1.3-3-2.1-6.3-2.1-9.9c0-13.5,10.9-24.5,24.4-24.5c6.3,0,12.4,2.4,17,6.8l0.1,0.1l0.3,0.2
	C252.3,66.9,252.3,82.4,242.8,91.9z"/>
<path class="st0" d="M133.5,133.5c49.3-49.2,61-52.9,70.8-46.4c-0.5-0.8-0.9-1.7-1.3-2.5c-10-5.2-23.7,0.9-71.5,48.7
	c-0.1,0.1-0.2,0.3-0.3,0.4C131.9,133.2,132.8,133.1,133.5,133.5z"/>
<path class="st0" d="M145.9,145.7L145.9,145.7l-11.2-11.3l0,0v-0.1l0,0c52-51.9,61.4-52.3,71.1-44.5c0.2,0,0.4,0,0.6,0
	c-0.7-0.9-1.4-1.8-1.9-2.8c-9.7-6.6-21.5-2.8-70.8,46.4c0.2,0.1,0.3,0.2,0.5,0.3L145.9,145.7z"/>
<path class="st0" d="M134.6,134.4C134.6,134.4,134.7,134.4,134.6,134.4L134.6,134.4L134.6,134.4z"/>
<path class="st0" d="M215.5,103.3c0.8,15.9-19.7,37.8-47.7,64.3c0.3,0.3,0.4,0.6,0.4,1s-0.2,0.7-0.5,1l0,0
	c31-29.3,48.9-49.3,49.2-65.1c0-2.2-0.4-4.4-1.1-6.5C216.2,99.8,216.1,101.6,215.5,103.3z"/>
<path class="st0" d="M166.8,166.6c-0.9-0.9-2.6-2.6-5.8-5.8l6.8,6.8l0,0c28-26.5,48.5-48.4,47.7-64.3c-0.3,1-0.8,2-1.5,2.9
	C212.2,122.2,189.9,144.6,166.8,166.6z"/>
<path class="st0" d="M119.9,153.3c-1.3,0.3-2.5-0.5-2.8-1.8c-0.2-0.8,0.1-1.6,0.6-2.2l13.9-13.9l-0.1-0.1c-0.4-0.4-0.5-1-0.3-1.6
	l0,0l-14.5,14.5c-0.7,0.7-1.1,1.7-1.1,2.7c0,2.1,1.7,3.8,3.8,3.8c0.3,0,0.5,0,0.8-0.1l21.3-4.6l1.9-1.9L119.9,153.3z"/>
<path class="st0" d="M131.5,135.3l0.1,0.1l0.6-0.6c0.2-0.2,0.5-0.2,0.8,0l0,0l1.2,1.2l-1.6-1.6c0.3-0.3,0.6-0.6,0.9-0.9
	c-0.7-0.4-1.7-0.3-2.3,0.3C131,134.3,131.1,134.9,131.5,135.3z"/>
<path class="st0" d="M145,146.6L145,146.6C145,146.5,145.1,146.5,145,146.6l0.9-0.9L134,133.8c-0.1-0.1-0.3-0.3-0.5-0.3
	c-0.3,0.3-0.6,0.6-0.9,0.9l1.6,1.6L145,146.6C144.9,146.6,145,146.6,145,146.6z"/>
<path class="st0" d="M143,146.8l-23.5,5c-0.4,0.1-0.8-0.1-1-0.5s-0.1-0.8,0.2-1.1l13.9-13.9l-1-1l-13.9,13.9
	c-0.6,0.6-0.8,1.4-0.6,2.2c0.3,1.3,1.5,2.1,2.8,1.8l23.5-5.1l0.5-0.5L143,146.8z"/>
<path class="st0" d="M143,146.8l0.8,0.8l1-1l0,0L134.2,136l-1.2-1.2l0,0c-0.2-0.2-0.5-0.2-0.8,0l-0.6,0.6l1,1L143,146.8z"/>
<path class="st0" d="M144.9,146.7L134.2,136L144.9,146.7z"/>
<path class="st0" d="M208.8,58.8c8.5-8.8,22.3-9.4,31.5-1.6l0.1-0.1c0.6-0.5,1.4-0.5,2,0l0.1,0.1l-0.1-0.1c-4.6-4.4-10.6-6.8-17-6.8
	c-13.5,0-24.4,11-24.4,24.5c0,3.5,0.7,6.8,2.1,9.9c0.8,0.4,1.6,0.9,2.4,1.5C200.5,77.4,201.6,66.3,208.8,58.8z"/>
<path class="st0" d="M237.3,95.9c-0.4,0-0.7-0.1-1-0.4l-0.3-0.3c-6.8,3.5-14.7,3.4-21.3-0.1c0.4,0.7,0.7,1.3,0.9,2.1
	c3,1.3,6.3,2.1,9.8,2.1c4.5,0,8.9-1.2,12.7-3.5c0.1-0.1,0.2-0.1,0.3-0.2c-0.1,0.1-0.2,0.2-0.4,0.2C237.8,95.8,237.6,95.9,237.3,95.9
	z"/>
<path class="st0" d="M208.2,90.2c0.1,0,0.2,0,0.3,0.1c-1.2-1.3-2.2-2.7-3.1-4.2c-0.8-0.6-1.6-1.1-2.4-1.5c0.4,0.9,0.8,1.7,1.3,2.5
	C205.6,88,206.9,89,208.2,90.2z"/>
<path class="st0" d="M208.2,90.2c-1.3-1.2-2.6-2.2-3.9-3.1c0.6,1,1.2,1.9,1.9,2.8C206.9,90,207.6,90.1,208.2,90.2z"/>
<path class="st0" d="M235,94.1c-3,1.5-6.2,2.2-9.5,2.2c-11.9,0-21.6-9.6-21.6-21.5s9.6-21.6,21.5-21.6l0,0c5.1,0,10,1.8,13.9,5l1-1
	c-9.2-7.8-23-7.2-31.5,1.6c-7.2,7.5-8.3,18.7-3.4,27.3c1.7,1.2,3.3,2.7,5,4.2c0.2,0.2,0.3,0.4,0.4,0.6c0.2,0.1,0.4,0.2,0.5,0.3
	c0.4,0.3,0.7,0.7,1,1c0.2,0.2,0.5,0.4,0.7,0.6c0.7,0.7,1.2,1.4,1.6,2.2c6.6,3.5,14.5,3.6,21.3,0.1l-15.8-15.8L235,94.1z"/>
<path class="st0" d="M210.9,90.9c-0.1-0.2-0.2-0.4-0.4-0.6c-1.7-1.6-3.4-3-5-4.2c0.8,1.5,1.9,2.9,3.1,4.2c0.6,0.1,1.1,0.3,1.6,0.6
	C210.4,90.8,210.6,90.8,210.9,90.9z"/>
<path class="st0" d="M212.4,92.3c-0.3-0.4-0.6-0.7-1-1c-0.2-0.2-0.3-0.3-0.5-0.3c0,0.1,0.1,0.2,0.1,0.4
	C211.4,91.6,211.9,91.9,212.4,92.3z"/>
<path class="st0" d="M210.1,90.9c0.3,0.1,0.5,0.3,0.8,0.4c0-0.1,0-0.2-0.1-0.4C210.6,90.8,210.4,90.8,210.1,90.9z"/>
<path class="st0" d="M237.5,92.6C237.5,92.6,237.6,92.6,237.5,92.6l-14.2-14.3L237.5,92.6z"/>
<path class="st0" d="M241.4,60.1l-18.1,18.2L241.4,60.1L241.4,60.1z"/>
<path class="st0" d="M242.5,57.2c0.2,0.3,0.3,0.6,0.3,0.9c0,0.4-0.1,0.7-0.4,1c8.4,9,8.2,23.1-0.6,31.9c-1,1-2.1,1.8-3.2,2.6
	c0.2,0.3,0.3,0.6,0.2,1c0,0.3-0.2,0.6-0.4,0.8c1.6-1,3.1-2.2,4.4-3.5c9.5-9.5,9.5-25-0.1-34.5L242.5,57.2z"/>
<path class="st0" d="M220.2,79.3c-0.3-0.3-0.4-0.6-0.4-1c0-0.2,0-0.4,0.1-0.5c-0.1,0.2-0.1,0.4-0.1,0.5
	C219.8,78.7,219.9,79,220.2,79.3z"/>
<path class="st0" d="M239.3,58.2L239.3,58.2l-19.1,19.1L239.3,58.2z"/>
<path class="st0" d="M238.6,93.6c-0.4,0.3-0.8,0.5-1.3,0.8c-0.4,0.3-0.9,0.5-1.3,0.7l0.3,0.3c0.3,0.3,0.6,0.4,1,0.4
	c0.2,0,0.5-0.1,0.7-0.2c0.1-0.1,0.2-0.2,0.4-0.2c0.2-0.2,0.4-0.5,0.4-0.8C238.9,94.3,238.8,93.9,238.6,93.6z"/>
<path class="st0" d="M240.4,57.1L240.4,57.1c0.3,0.4,0.7,0.7,1,1l-20.2,20.2l20.2-20.2l0.4,0.3l0,0c0.2,0.2,0.4,0.4,0.6,0.7
	c0.3-0.3,0.4-0.6,0.4-1c0-0.3-0.1-0.6-0.3-0.9l-0.1-0.1C241.8,56.6,240.9,56.6,240.4,57.1z"/>
<path class="st0" d="M241.4,58.1c-0.4-0.3-0.7-0.6-1.1-0.9l-1,1l0,0l-19.1,19.1c-0.1,0.1-0.2,0.3-0.3,0.5s-0.1,0.4-0.1,0.5
	c0,0.4,0.2,0.7,0.4,1L236,95.1c0.4-0.2,0.9-0.5,1.3-0.7l-16.1-16.1L241.4,58.1z"/>
<path class="st0" d="M241.4,60.1c7.8,8.5,7.5,21.7-0.7,29.9c-1,1-2,1.8-3.1,2.6l0.8,0.8c0.1,0.1,0.1,0.1,0.2,0.2
	c1.1-0.8,2.2-1.6,3.2-2.6c8.8-8.8,9-22.9,0.6-31.9l0,0L241.4,60.1z"/>
<path class="st0" d="M241.8,58.4l-0.4-0.3l-20.2,20.2l16.1,16.1c0.4-0.2,0.8-0.5,1.3-0.8c-0.1-0.1-0.1-0.2-0.2-0.2l-0.8-0.8
	c0,0,0,0-0.1,0l-14.2-14.3l18.1-18.2l0,0l1-1l0,0C242.2,58.9,242,58.7,241.8,58.4L241.8,58.4z"/>
<path class="st0" d="M215.8,98c-0.1-0.3-0.1-0.6-0.2-0.9c0,0-0.1,0-0.1-0.1C215.6,97.4,215.7,97.7,215.8,98z"/>
<path class="st0" d="M199.7,93.9c2.1-2.1,5.1-2.9,7.8-2.4l0,0c-0.6-0.5-1.2-1-1.8-1.5c-2.6,0-5.1,1-7.1,3l-52.7,52.8l1,1L199.7,93.9
	z"/>
<path class="st0" d="M146.5,146.4c0.1,0.1,0.3,0.2,0.4,0.3l0,0l0,0l-1-1l0,0l0.2,0.2C146.3,146.1,146.4,146.2,146.5,146.4z"/>
<path class="st0" d="M207.5,91.5c0.1,0,0.1,0,0.2,0c-0.5-0.5-0.9-1-1.4-1.6c-0.2,0-0.4,0-0.6,0C206.3,90.4,206.9,90.9,207.5,91.5
	L207.5,91.5z"/>
<path class="st0" d="M211.7,106.7l-55.8,49l1,1l55.7-48.9c0.2-0.1,0.3-0.3,0.5-0.5c0.3-0.3,0.6-0.7,0.9-1.1c0.1-0.6,0.1-1.2,0.1-1.7
	c0-0.4,0-0.8,0-1.2C213.6,104.5,212.8,105.7,211.7,106.7z"/>
<path class="st0" d="M213.7,96.2c0.4,0.7,0.6,1.4,0.8,2.2c0.6,1.6,0.9,3.2,1,4.9c0.6-1.7,0.7-3.5,0.3-5.3c-0.1-0.3-0.2-0.6-0.4-1
	C214.9,96.8,214.3,96.5,213.7,96.2z"/>
<path class="st0" d="M214.1,103.3c0,0.4,0,0.8,0,1.2c0,0.6-0.1,1.1-0.1,1.7c0.7-0.9,1.2-1.9,1.5-2.9c-0.1-1.7-0.4-3.3-1-4.9
	C214.8,100,214.7,101.7,214.1,103.3z"/>
<path class="st0" d="M146.5,146.4c-0.1-0.2-0.2-0.3-0.3-0.5l-0.2-0.2l-0.8,0.8l0,0l0,0C145.4,146.2,146,146.2,146.5,146.4z"/>
<path class="st0" d="M214.3,94.9c0.4,0.7,0.8,1.4,1.2,2.2c0,0,0.1,0,0.1,0.1c-0.2-0.7-0.5-1.4-0.9-2.1
	C214.6,95,214.4,94.9,214.3,94.9z"/>
<path class="st0" d="M209.4,91.2L209.4,91.2c-0.3-0.3-0.6-0.6-0.9-1c-0.1,0-0.2-0.1-0.3-0.1C208.6,90.5,209,90.9,209.4,91.2
	L209.4,91.2z"/>
<path class="st0" d="M207.6,91.5c0.4,0.1,0.8,0.2,1.1,0.3l0.6-0.6c-0.4-0.4-0.8-0.7-1.2-1c-0.6-0.1-1.3-0.2-1.9-0.3
	C206.7,90.5,207.2,91,207.6,91.5z"/>
<path class="st0" d="M210.5,92.4c0.3,0.3,0.6,0.6,0.8,0.9c0.2,0.2,0.5,0.4,0.7,0.6c0.1,0.1,0.3,0.3,0.4,0.4c0.5,0.6,0.9,1.2,1.3,1.9
	c0.6,0.3,1.1,0.6,1.7,0.8c-0.3-0.8-0.7-1.5-1.2-2.2C213,94.1,211.7,93.3,210.5,92.4C210.6,92.3,210.5,92.3,210.5,92.4z"/>
<path class="st0" d="M209.4,91.2L209.4,91.2L209.4,91.2c0,0.1,0.1,0.1,0.2,0.2l-0.5,0.5c0.4,0.1,0.7,0.3,1.1,0.5l0.2-0.2l0.1,0.1
	c0,0,0-0.1,0.1-0.1c-0.4-0.3-0.7-0.6-1.1-1C209.5,91.3,209.4,91.2,209.4,91.2z"/>
<path class="st0" d="M209.6,91.4c-0.1-0.1-0.1-0.1-0.2-0.2l-0.6,0.6c0.1,0,0.2,0.1,0.3,0.1L209.6,91.4z"/>
<path class="st0" d="M210.3,92.6c0.4,0.2,0.7,0.4,1,0.7c-0.3-0.3-0.5-0.6-0.8-0.9l0,0L210.3,92.6z"/>
<path class="st0" d="M210.2,92.5c0.1,0,0.1,0.1,0.2,0.1l0.2-0.2l0,0l-0.1-0.1L210.2,92.5z"/>
<path class="st0" d="M212.4,92.3c0.7,0.8,1.4,1.7,1.9,2.6c0.1,0.1,0.3,0.1,0.4,0.2c-0.4-0.8-1-1.5-1.6-2.2
	C212.8,92.7,212.6,92.5,212.4,92.3z"/>
<path class="st0" d="M210.1,90.9c-0.5-0.2-1.1-0.4-1.6-0.6c0.3,0.3,0.6,0.6,0.9,0.9C209.6,91,209.9,90.9,210.1,90.9z"/>
<path class="st0" d="M210.9,91.3L210.9,91.3c0,0.4-0.1,0.7-0.3,1c1.2,1,2.4,1.8,3.7,2.6c-0.6-0.9-1.2-1.8-1.9-2.6
	C211.9,91.9,211.4,91.6,210.9,91.3z"/>
<path class="st0" d="M209.4,91.2l0.1,0.1c0.4,0.3,0.7,0.7,1.1,1c0.2-0.3,0.4-0.6,0.3-1l0,0c-0.3-0.1-0.5-0.3-0.8-0.4
	C209.9,90.9,209.6,91,209.4,91.2z"/>
<path class="st0" d="M149.8,149.2l-1.7-1.7l52.6-52.6c0.2-0.2,0.3-0.3,0.5-0.5c1.5-1.2,3.2-1.8,5-1.7l1.2-1.2
	c-2.7-0.5-5.7,0.3-7.8,2.4l-52.8,52.8l2.7,2.7L149.8,149.2z"/>
<path class="st0" d="M206.3,92.7c0.5,0,1,0.1,1.4,0.2l0.6-0.6c-0.2-0.2-0.5-0.5-0.7-0.7c-0.1,0-0.1,0-0.2,0L206.3,92.7z"/>
<polygon class="st0" points="150.4,150.2 150.6,150 149.8,149.2 149.6,149.4 146.9,146.7 146.9,146.7 146.9,146.7 "/>
<path class="st0" d="M210.8,105.6l-55.7,48.9l-2.5-2.5l-0.2,0.2c1.2,1.2,2.3,2.3,3.4,3.4l0,0l0.1,0.1l55.8-49c1.1-1,1.9-2.1,2.4-3.4
	c-0.1-1.3-0.3-2.6-0.7-3.9C213.5,101.7,212.6,104,210.8,105.6z"/>
<path class="st0" d="M214.5,98.4c-0.2-0.8-0.4-1.5-0.8-2.2c-0.1-0.1-0.3-0.2-0.4-0.2C213.8,96.8,214.2,97.6,214.5,98.4z"/>
<path class="st0" d="M208,93c0.4,0.1,0.8,0.3,1.2,0.4l0.2-0.2c-0.3-0.2-0.6-0.5-0.8-0.8L208,93z"/>
<rect x="150.9" y="150.1" transform="matrix(0.7077 -0.7065 0.7065 0.7077 -62.3291 150.725)" class="st0" width="0.2" height="1.1"/>
<path class="st0" d="M208.6,92.4c-0.1-0.1-0.1-0.1-0.2-0.2l-0.6,0.6c0.1,0,0.2,0,0.3,0.1L208.6,92.4z"/>
<rect x="150.5" y="150.1" transform="matrix(0.7078 -0.7064 0.7064 0.7078 -62.1296 150.3068)" class="st0" width="0.2" height="0.3"/>
<path class="st0" d="M209.6,93.3l-0.2,0.2c0.8,0.4,1.6,1,2.2,1.8c1,1.2,1.6,2.7,1.7,4.1c0.4,1.2,0.7,2.5,0.7,3.9
	c0.6-1.5,0.7-3.2,0.4-4.9c-0.3-0.8-0.7-1.7-1.2-2.4C212,95.2,210.7,94.3,209.6,93.3z"/>
<path class="st0" d="M155.8,155.6L155.8,155.6c-1-1-2.1-2.1-3.3-3.4l0.2-0.2l-0.8-0.8l-0.2,0.2L155.8,155.6z"/>
<rect x="151.5" y="151.1" transform="matrix(0.7062 -0.708 0.708 0.7062 -62.5487 151.7823)" class="st0" width="0.2" height="0.3"/>
<path class="st0" d="M209.2,93.4c0.1,0,0.1,0.1,0.2,0.1l0.2-0.2l-0.1-0.1L209.2,93.4z"/>
<path class="st0" d="M208.4,92.2l0.4-0.4c-0.4-0.1-0.7-0.2-1.1-0.3C207.9,91.8,208.1,92,208.4,92.2z"/>
<path class="st0" d="M212.1,93.9c-0.2-0.2-0.5-0.4-0.7-0.6c0.8,0.9,1.4,1.8,2,2.7c0.1,0.1,0.3,0.2,0.4,0.2c-0.3-0.7-0.7-1.3-1.3-1.9
	C212.3,94.2,212.2,94,212.1,93.9z"/>
<path class="st0" d="M209.4,93.2l0.7-0.7c-0.4-0.2-0.7-0.4-1.1-0.5l-0.5,0.5C208.8,92.7,209.1,93,209.4,93.2z"/>
<path class="st0" d="M208.6,92.4l0.5-0.5c-0.1,0-0.2-0.1-0.3-0.1l-0.4,0.4C208.4,92.3,208.5,92.4,208.6,92.4z"/>
<path class="st0" d="M209.6,93.3c1.2,1,2.4,1.9,3.8,2.6c-0.5-0.9-1.2-1.8-2-2.7c-0.3-0.3-0.7-0.5-1-0.7L209.6,93.3z"/>
<path class="st0" d="M210.2,92.5l-0.7,0.7l0.1,0.1l0.8-0.8C210.3,92.5,210.2,92.5,210.2,92.5z"/>
<path class="st0" d="M164.7,168.5L164.7,168.5l-10.3-10.3h-0.1L164.7,168.5z"/>
<path class="st0" d="M87.2,206.4L87.2,206.4l43.9-43.9c-0.3-0.3-0.4-0.6-0.4-1s0.1-0.7,0.4-1l-45.9,45.9
	C85.7,205.8,86.6,205.8,87.2,206.4z"/>
<path class="st0" d="M166.7,170c-0.4,0-0.7-0.2-1-0.4l-0.1-0.1c-5,4.4-22.6,19.8-60.8,39c-0.5,0.3-0.8,0.9-0.7,1.4l2.4,10.3
	c0.5,1.5-0.3,3.1-1.8,3.6c-0.1,0-0.1,0-0.2,0l0.7,0.7c0.1,0.1,0.2,0.2,0.2,0.3c0.1-0.1,0.2-0.1,0.3-0.2c1.7-0.9,2.6-2.9,2.1-4.8
	l-2.4-10.2c25.5-12.8,46-25.9,61.1-39.2l1-0.9l0,0C167.5,169.9,167.1,170,166.7,170L166.7,170z"/>
<path class="st0" d="M156.9,156.7c1.6,1.6,3,3,4.2,4.2L156.9,156.7L156.9,156.7z"/>
<path class="st0" d="M167.8,167.6c-0.3,0.3-0.7,0.6-1,1l0,0c-0.3,0.2-0.6,0.5-1.1,0.9l0.1,0.1c0.3,0.3,0.6,0.4,1,0.4h0.1
	c0.3,0,0.7-0.1,0.9-0.4c0.3-0.3,0.5-0.6,0.5-1C168.2,168.3,168.1,167.9,167.8,167.6z"/>
<path class="st0" d="M161,160.8c-1.2-1.2-2.5-2.5-4.2-4.2l-1,0.9l-0.1,0.1l11,11l0,0l0,0c0.3-0.3,0.7-0.6,1-1l0,0L161,160.8z"/>
<path class="st0" d="M155.9,155.7L155.9,155.7c0.3,0.3,0.6,0.7,1,1l0,0L155.9,155.7z"/>
<path class="st0" d="M155.9,155.7c0.3,0.4,0.4,0.8,0.3,1.3c-0.1,0.2-0.2,0.3-0.3,0.5l1-0.9C156.6,156.3,156.2,156,155.9,155.7
	L155.9,155.7z"/>
<path class="st0" d="M155.9,155.7L155.9,155.7c-0.1-0.1-0.1-0.1-0.1-0.1C155.8,155.6,155.9,155.7,155.9,155.7L155.9,155.7z"/>
<path class="st0" d="M155.8,155.6l0.1,0.1l0,0C155.9,155.7,155.8,155.6,155.8,155.6L155.8,155.6L155.8,155.6z"/>
<path class="st0" d="M99.1,218.3l3.7,3.7l0,0L99.1,218.3z"/>
<path class="st0" d="M104.3,207.2c-1.1,0.6-1.7,1.8-1.4,3l2.4,10.3c0.4,0.7,0.2,1.6-0.5,2c-0.5,0.3-1,0.2-1.5,0l1.4,1.4
	c0.1,0,0.1,0,0.2,0c1.5-0.5,2.3-2.1,1.8-3.6l-2.4-10.3c-0.1-0.6,0.2-1.2,0.7-1.4c38.2-19.1,55.8-34.6,60.8-39l-1-1
	C149.7,181.5,129.5,194.5,104.3,207.2z"/>
<path class="st0" d="M88.2,207.4l44.5-44.5l-0.3,0.1c-0.1,0-0.2,0-0.3,0c-0.4,0-0.7-0.2-1-0.4l-43.9,43.9l0,0L88.2,207.4z"/>
<path class="st0" d="M155.1,158l-0.7,0.1l10.3,10.3l0,0l1,1c0.5-0.4,0.8-0.7,1.1-0.9l-11-11C155.6,157.8,155.4,157.9,155.1,158z"/>
<polygon class="st0" points="155.8,157.6 155.8,157.6 166.8,168.6 166.8,168.6 "/>
<path class="st0" d="M104.3,225.6l-29-2c-1.3-0.1-2.2-1.3-2-2.6c0.1-0.5,0.3-1,0.7-1.4l0,0l11.2-11.2c-0.3-0.3-0.4-0.6-0.4-1
	s0.1-0.7,0.4-1L73,218.6c-0.6,0.6-1,1.4-1.1,2.3c-0.2,2.1,1.3,3.9,3.4,4.1l29,2h0.1c0.6,0,1.1-0.3,1.3-0.8c0.2-0.4,0.2-0.9-0.1-1.3
	c-0.5,0.2-1,0.4-1.6,0.4L104.3,225.6z"/>
<path class="st0" d="M103.2,222.4l-0.5-0.5C102.9,222.1,103,222.3,103.2,222.4z"/>
<path class="st0" d="M88.2,207.4l10.9,10.9L88.2,207.4z"/>
<path class="st0" d="M104.7,223.9c-1.1,0.3-2.2-0.1-2.9-0.9l-15.5-15.5l1-1l0,0c-0.6-0.6-1.5-0.5-2,0c-0.3,0.3-0.4,0.6-0.4,1
	s0.1,0.7,0.4,1l1-1l17.8,17.8c0.6,0,1.1-0.2,1.6-0.4c-0.1-0.1-0.1-0.2-0.2-0.3L104.7,223.9z"/>
<path class="st0" d="M102.8,222l-3.7-3.7l-10.9-10.9l0,0l-1-1l0,0l-1,1l15.5,15.5c0.7,0.9,1.9,1.2,2.9,0.9l-1.4-1.4
	C103,222.3,102.9,222.1,102.8,222z"/>
<path class="st0" d="M73.9,219.6c-0.4,0.4-0.6,0.9-0.7,1.4c-0.1,1.3,0.8,2.4,2,2.6l29,2l-0.3-0.3c-0.1,0-0.1,0-0.2,0
	c-1.1,0-2.2-0.5-3-1.3l-15.6-15.6l0,0L73.9,219.6L73.9,219.6z M75,220.6l11.2-11.2l14.5,14.5l-25.2-1.7c-0.3,0-0.6-0.3-0.8-0.6
	C74.6,221.2,74.7,220.8,75,220.6z"/>
<path class="st0" d="M100.8,223.9c0.8,0.8,1.9,1.3,3,1.3c0.1,0,0.1,0,0.2,0l-17.8-17.8l-1,1l0,0L100.8,223.9z"/>
<path class="st0" d="M154.3,158.2l-14.9,3.2c-0.2,0-0.5,0.1-0.7,0.1c-1.3,0-2.4-0.7-3-1.6l-3.1,3.1L154.3,158.2L154.3,158.2z"/>
<polygon class="st0" points="154.3,158.2 154.4,158.2 154.4,158.2 "/>
<path class="st0" d="M131.1,162.5l4.2-4.2c0-0.2,0-0.3,0-0.5c0-1,0.4-1.9,1.1-2.5l-5.2,5.2c-0.3,0.3-0.4,0.6-0.4,1
	C130.6,161.9,130.8,162.2,131.1,162.5z"/>
<path class="st0" d="M132.3,162.9l0.3-0.1l3.1-3.1c-0.3-0.4-0.4-0.9-0.5-1.4l-4.2,4.2c0.3,0.3,0.6,0.4,1,0.4
	C132.1,162.9,132.2,162.9,132.3,162.9z"/>
<path class="st0" d="M154.4,158.1l0.7-0.1L154.4,158.1z"/>
<polygon class="st0" points="149.4,153.2 149.4,153.2 151.3,155.1 151.3,155.1 "/>
<polygon class="st0" points="151.9,155.7 151.3,155.1 151.3,155.1 "/>
<polygon class="st0" points="145.9,149.7 145.9,149.7 140.6,155 140.6,155 "/>
<polygon class="st0" points="140.6,155 140.6,155 139.2,156.4 139.2,156.4 "/>
<path class="st0" d="M139.2,156.4l-1,1c-0.1,0.1-0.1,0.1-0.2,0.2L139.2,156.4L139.2,156.4z"/>
<path class="st0" d="M136.5,159.1l0.4-0.1c0-0.1-0.1-0.1-0.1-0.2L136.5,159.1z"/>
<path class="st0" d="M138.6,154.9l5.4-5.4l-2.5,0.5l-5.2,5.2c0.3-0.3,0.6-0.4,1-0.4L138.6,154.9z"/>
<polygon class="st0" points="144.8,148.7 144.2,148 143.3,148.2 141.5,150.1 144,149.5 "/>
<path class="st0" d="M144.7,147.9l-0.5,0.1l0.6,0.6l0.2-0.2C144.9,148.3,144.8,148.1,144.7,147.9z"/>
<path class="st0" d="M145,146.6l-0.1,0.1l0.1,0.1C145,146.7,145,146.6,145,146.6z"/>
<polygon class="st0" points="143.3,148.2 144.2,148 143.9,147.7 "/>
<path class="st0" d="M144.9,146.7L144.9,146.7L144.9,146.7l-1.1,1l0.4,0.4l0.5-0.1C144.6,147.5,144.7,147.1,144.9,146.7z"/>
<path class="st0" d="M144.9,146.7L144.9,146.7L144.9,146.7z"/>
<path class="st0" d="M149.4,151.2l-2.9-2.9l0,0L149.4,151.2L149.4,151.2L149.4,151.2z"/>
<path class="st0" d="M146.9,146.7c-0.1-0.1-0.3-0.2-0.4-0.3c0.1,0.2,0.2,0.3,0.2,0.5L146.9,146.7L146.9,146.7z"/>
<path class="st0" d="M149.5,151l-3-3c0,0.1-0.1,0.1-0.1,0.2l2.9,2.9L149.5,151z"/>
<path class="st0" d="M150.6,152.4l2.8,2.7l0,0L150.6,152.4L150.6,152.4z"/>
<path class="st0" d="M150.6,152.4l-0.2-0.2l0.2-0.2l-0.8-0.8l-0.1,0.1l-0.2-0.2l0,0l0,0L150.6,152.4L150.6,152.4z"/>
<rect x="149.5" y="151.1" transform="matrix(0.7068 -0.7074 0.7074 0.7068 -63.1298 150.1853)" class="st0" width="0.2" height="0.3"/>
<polygon class="st0" points="150.6,152.4 150.6,152.4 153.4,155.2 153.7,155.2 150.8,152.3 "/>
<polygon class="st0" points="150.4,152.2 150.6,152.4 150.6,152.4 150.8,152.3 150.6,152.1 "/>
<path class="st0" d="M146.5,148.3L146.5,148.3l-1.3-1.4c0.2,0.2,0.2,0.6,0,0.8c-0.1,0.1-0.2,0.1-0.3,0.2h-0.1
	c0.1,0.2,0.2,0.4,0.3,0.6l0.8-0.8L146.5,148.3z"/>
<path class="st0" d="M145.1,146.9L145.1,146.9l1.4,1.4c0-0.1,0.1-0.1,0.1-0.2l-0.5-0.5l0.6-0.6c0-0.2-0.1-0.3-0.2-0.5
	c-0.5-0.2-1-0.1-1.4,0.2C145.1,146.7,145,146.8,145.1,146.9L145.1,146.9z"/>
<path class="st0" d="M145.1,147.7c0.2-0.2,0.2-0.6,0-0.8l-0.2-0.2c-0.3,0.4-0.3,0.8-0.2,1.2h0.1C144.9,147.9,145,147.8,145.1,147.7z
	"/>
<polygon class="st0" points="145.1,146.9 144.9,146.7 144.9,146.7 "/>
<path class="st0" d="M150.4,150.2l-3.5-3.5l0,0l-0.2,0.2c0.1,0.4,0.1,0.8-0.1,1.2l3,3L150.4,150.2z"/>
<rect x="150" y="150.7" transform="matrix(0.7071 -0.7071 0.7071 0.7071 -62.8363 150.801)" class="st0" width="1.2" height="1.1"/>
<rect x="149.5" y="150.6" transform="matrix(0.7048 -0.7094 0.7094 0.7048 -62.6283 150.9969)" class="st0" width="1.2" height="0.3"/>
<path class="st0" d="M155.8,155.6l-4.2-4.2l-0.8,0.8l2.9,2.9h1.1C155.2,155.2,155.5,155.3,155.8,155.6z"/>
<rect x="150.5" y="151.6" transform="matrix(0.7064 -0.7078 0.7078 0.7064 -63.049 151.508)" class="st0" width="1.2" height="0.3"/>
<path class="st0" d="M146.7,146.9l-0.6,0.6l0.5,0.5C146.7,147.7,146.8,147.3,146.7,146.9z"/>
<path class="st0" d="M138.7,161.4c0.2,0,0.5,0,0.7-0.1l14.9-3.2l-0.2-0.2l-5.2-0.1l-9.7,2.1c-0.9,0.2-1.8-0.2-2.3-0.9l-0.4,0.1
	l0.3-0.3c0,0,0,0,0-0.1l-1,1C136.4,160.8,137.5,161.4,138.7,161.4z"/>
<polygon class="st0" points="154.4,158.1 154.2,158 154.1,158 154.3,158.2 "/>
<path class="st0" d="M135.2,158.3l1.7-1.7c0.1-0.1,0.1-0.2,0.2-0.3l1.4-1.4h-1.3c-0.4,0-0.8,0.1-1,0.4c-0.7,0.7-1.1,1.6-1.1,2.5
	C135.2,158,135.2,158.2,135.2,158.3z"/>
<path class="st0" d="M155.8,157.6L155.8,157.6c0.1,0,0.1,0,0.1-0.1l0,0C155.8,157.5,155.8,157.6,155.8,157.6z"/>
<polygon class="st0" points="154.8,156.6 153.4,155.2 153.3,155.2 "/>
<path class="st0" d="M155.9,155.7l-0.9,0.8l-1.3-1.3h-0.3l1.4,1.4l1,1c0,0,0.1,0,0.1-0.1l0,0c0.1-0.1,0.2-0.3,0.3-0.5
	C156.3,156.6,156.2,156.1,155.9,155.7z"/>
<path class="st0" d="M155.8,155.6c-0.3-0.2-0.6-0.4-0.9-0.4h-1.1l1.3,1.3l0.9-0.8C155.9,155.7,155.8,155.6,155.8,155.6L155.8,155.6z
	"/>
<polygon class="st0" points="154.1,158 153.1,157 148.9,157.9 "/>
<path class="st0" d="M136.7,158.8c-0.1-0.1-0.1-0.3-0.2-0.4c-0.1-0.6,0-1.2,0.4-1.7l-1.7,1.7c0.1,0.5,0.2,1,0.5,1.4L136.7,158.8z"/>
<path class="st0" d="M155,157.9c-0.4,0-0.7-0.1-1-0.4l-0.6-0.6l-0.3,0.1l1,1h0.1l0.2,0.2L155,157.9c0.4,0,0.6-0.1,0.8-0.3l0,0
	C155.6,157.8,155.3,157.9,155,157.9z"/>
<path class="st0" d="M155.8,157.6L155.8,157.6L155.8,157.6z"/>
<path class="st0" d="M154,157.5c0.3,0.3,0.6,0.4,1,0.4c0.3,0,0.5-0.1,0.8-0.3l-1-1l-1.4,0.3L154,157.5z"/>
<path class="st0" d="M155.8,157.6l-1-1L155.8,157.6z"/>
<path class="st0" d="M149.3,153.1l-0.6-0.6l-0.1-0.1l-2.7-2.7l0,0L149.3,153.1L149.3,153.1z"/>
<path class="st0" d="M148.7,152.5l-2.8-2.8l2.7,2.7C148.6,152.4,148.7,152.5,148.7,152.5z"/>
<path class="st0" d="M151.4,155.1l-2-2c0,0,0,0.1,0.1,0.1L151.4,155.1L151.4,155.1z"/>
<path class="st0" d="M136.9,159l5.7-1.2h-0.1l-3.6,0.8c-0.3,0.1-0.7-0.1-0.8-0.4c-0.1-0.2-0.1-0.3-0.1-0.5h-0.1l-1.1,1.1
	C136.8,158.9,136.8,159,136.9,159z"/>
<polygon class="st0" points="151.9,155.8 151.9,155.7 148.3,156.5 148.5,156.5 "/>
<polygon class="st0" points="151.4,155.1 151.3,155.1 151.9,155.7 151.9,155.7 151.9,155.8 152,155.8 "/>
<polygon class="st0" points="148.3,156.5 142.5,157.8 142.6,157.8 148.5,156.5 "/>
<path class="st0" d="M138,157.6l-0.1,0.1h0.1C138,157.7,138,157.6,138,157.6z"/>
<path class="st0" d="M148.7,152.5l0.6,0.6c-0.1-0.1-0.2-0.2-0.2-0.4C149,152.7,148.8,152.6,148.7,152.5z"/>
<path class="st0" d="M145.9,149.7L145.9,149.7L145.9,149.7l-0.5-0.5c-0.1,0-0.2,0.1-0.3,0.1l-1.2,0.2l-5.4,5.4h2L145.9,149.7z"/>
<path class="st0" d="M149.1,152.7c0-0.1,0-0.1,0-0.2l-3.4-3.4c-0.1,0-0.2,0.1-0.2,0.1l0.5,0.5l2.8,2.8
	C148.8,152.6,149,152.7,149.1,152.7z"/>
<path class="st0" d="M151.6,155.1l-2.3-2.3c-0.1,0-0.1,0-0.2-0.1c0.1,0.1,0.1,0.3,0.2,0.4l2,2L151.6,155.1z"/>
<path class="st0" d="M149,152.5c0,0.1,0,0.1,0,0.2c0.1,0,0.1,0.1,0.2,0.1L149,152.5z"/>
<path class="st0" d="M145.4,149.2l-0.5-0.5l-0.9,0.9l1.2-0.2C145.2,149.3,145.3,149.2,145.4,149.2z"/>
<path class="st0" d="M145.6,149.1l-0.6-0.6c0,0,0,0,0-0.1l-0.2,0.2l0.5,0.5C145.5,149.2,145.5,149.2,145.6,149.1z"/>
<path class="st0" d="M149,152.2c0-0.4,0.1-0.7,0.4-1l-2.9-2.9c-0.1,0.2-0.2,0.3-0.3,0.4c-0.2,0.2-0.3,0.3-0.5,0.4l3.4,3.4
	C149,152.4,149,152.3,149,152.2z"/>
<path class="st0" d="M149.3,152.8l2.3,2.3h1.7l-2.8-2.7c-0.3,0.3-0.6,0.4-1,0.4C149.5,152.8,149.4,152.8,149.3,152.8z"/>
<path class="st0" d="M149.6,152.8c0.4,0,0.7-0.2,1-0.4l-1.2-1.2c-0.3,0.3-0.4,0.6-0.4,1c0,0.1,0,0.2,0.1,0.3l0.3,0.3
	C149.4,152.8,149.5,152.8,149.6,152.8z"/>
<path class="st0" d="M146.5,148.3l-0.6-0.6l-0.8,0.8c0,0,0,0,0,0.1l0.6,0.6c0.2-0.1,0.4-0.2,0.5-0.4
	C146.3,148.6,146.4,148.5,146.5,148.3z"/>
<path class="st0" d="M136.9,159c0.5,0.7,1.4,1.1,2.3,0.9l9.7-2.1l-6.3-0.1L136.9,159z"/>
<path class="st0" d="M137.9,157.7L137.9,157.7l-1.2,1.1c0,0,0,0,0,0.1L137.9,157.7z"/>
<polygon class="st0" points="148.5,156.5 152.7,156.6 151.9,155.8 "/>
<path class="st0" d="M139.2,156.4l1.4-1.4h-2l-1.4,1.4c-0.1,0.1-0.1,0.2-0.2,0.3l0.3-0.3H139.2z"/>
<polygon class="st0" points="152,155.8 151.9,155.8 152.7,156.6 153.1,156.6 151.6,155.1 151.4,155.1 "/>
<polygon class="st0" points="151.6,155.1 153.1,156.6 154.8,156.6 153.3,155.2 "/>
<path class="st0" d="M136.6,158.3c0,0.2,0.1,0.3,0.2,0.4l1.1-1.1h0.1l0.1-0.1c0-0.1,0.1-0.2,0.2-0.2l1-1h-1.9l-0.3,0.3
	C136.6,157.1,136.4,157.7,136.6,158.3z"/>
<polygon class="st0" points="148.5,156.5 142.6,157.8 148.9,157.9 153.1,157 152.7,156.6 "/>
<polygon class="st0" points="152.7,156.6 153.1,157 153.4,156.9 153.1,156.6 "/>
<polygon class="st0" points="153.4,156.9 154.8,156.6 153.1,156.6 "/>
<path class="st0" d="M241.9,72.1c-0.3-0.9-1.2-1.3-2.1-1.1c-0.9,0.3-1.3,1.2-1.1,2.1c0,0.1,0.1,0.3,0.2,0.4c0.9,1.7,0.6,3.8-0.6,5.3
	c-0.6,0.7-0.5,1.7,0.2,2.3c0.7,0.6,1.7,0.5,2.3-0.2C242.9,78.5,243.3,75,241.9,72.1z"/>
</svg>
