<?xml version="1.0" encoding="utf-8"?>
<!-- Generator: Adobe Illustrator 24.3.0, SVG Export Plug-In . SVG Version: 6.00 Build 0)  -->
<svg version="1.1" id="Layer_1" xmlns="http://www.w3.org/2000/svg" xmlns:xlink="http://www.w3.org/1999/xlink" x="0px" y="0px"
	 viewBox="0 0 2424 2500" style="enable-background:new 0 0 2424 2500;" xml:space="preserve">
<style type="text/css">
	.st0{fill:#58627F;}
	.st1{fill:none;}
	.st2{fill:#7E8BB6;}
</style>
<path class="st0" d="M2414.6,1496.9L2414.6,1496.9c-14.5-44-52.6-74.7-101.8-82c-23.2-3.5-49.8-2-81.3,4.5
	c-54.8,11.3-95.5,15.6-125.2,16.5c112.1-189.2,203.2-405,255.7-608.2c84.8-328.5,39.5-478.1-13.5-545.8
	C2208.3,102.7,2003.7,6.5,1756.9,3.5c-131.6-1.6-247.2,24.4-307.5,43.1c-56.1-9.9-116.5-15.4-179.8-16.5
	c-118.7-1.9-223.6,24-313.2,77.2c-49.6-16.8-129.2-40.4-221.2-55.5C518.9,16.3,344.6,43.9,217.1,134C62.7,243.1-8.9,432.6,4.4,697.2
	c4.2,84,51.2,339.7,125.2,582.1c42.5,139.4,87.9,255.1,134.8,344c66.5,126.1,137.7,200.3,217.7,227c44.8,14.9,126.2,25.4,211.8-45.9
	c10.9,13.1,25.3,26.2,44.5,38.3c24.4,15.4,54.2,28,84,35.4c107.4,26.8,208,20.1,293.8-17.5c0.5,15.3,0.9,29.8,1.3,42.4
	c0.6,20.4,1.1,40.5,1.9,59.2c5.1,126.6,13.7,225.1,39.2,294c1.4,3.8,3.3,9.6,5.3,15.7c12.7,39,34,104.3,88.2,155.4
	c56.1,53,124,69.2,186.1,69.2c31.2,0,60.9-4.1,87-9.7c93-19.9,198.6-50.3,275-159.1c72.2-102.8,107.3-257.7,113.7-501.7
	c0.8-6.9,1.6-13.5,2.3-19.8l1.5-12.9l17,1.5l4.4,0.3c94.7,4.3,210.5-15.8,281.6-48.8C2276.9,1720.3,2457,1625.2,2414.6,1496.9z
	 M2189.4,1679.6c-56.4,26.2-146.3,42.7-224.3,42.7c-37.4,0-71.9-3.8-98.8-12.2c-12.7,117-39.8,335.1-55.5,426.4
	c-29.5,170.9-105.6,248.4-281,286c-29.9,6.4-57,9.3-81.6,9.3c-168,0-221.2-133-243-187.4c-26.6-66.5-35.8-284.7-34-506.1
	c-60.6,54.8-136.5,83.1-222.7,83.1c-35.4,0-72.6-4.8-111.2-14.4c-11.1-2.8-108.2-28.9-106.9-91c1.2-56.9,82.3-73.6,112.8-79.9
	c107.3-22.1,114.3-30.9,147.6-73.3c7.9-10.2,16-20.2,24.3-30.1c-0.1-1.2-0.2-2.5-0.3-3.8c-48.1-1.3-95.2-14.1-138-37.1
	c-66,70.5-130,142.9-191.8,217.1c-50.7,61-99.4,78.9-139.2,78.9c-16.2,0-30.9-3-43.7-7.2c-109-36.4-212.5-213-307.8-525.2
	C121.9,1018.3,76.1,770.7,72,690.2c-12-239.3,49.8-408.6,183.5-503.4c112.1-79.4,269.1-103.5,466.8-71.7
	c114.3,18.4,207.8,50.5,244,64c83.3-56.8,183.8-84.6,300.2-82.8c63.5,1,121.7,9.2,175.2,22.5C1467,107.7,1598,68.1,1753,69.8
	c225.5,2.4,411.7,89.4,538.6,251.5c31.5,40.2,46.7,106.1,45.3,195.7c-1.3,81.6-16.6,181.8-44.5,289.6
	c-58.8,227.7-167.8,471.7-300.3,673.6c20,14.8,81.1,39.1,251.6,3.9c57.4-11.9,92-1.4,102.7,31.1h0
	C2367.1,1578,2252.8,1650.2,2189.4,1679.6z"/>
<path class="st1" d="M1083.5,813.1c3.1-22.1-29-36.9-60.2-41.2l0,0c-25.4-3.5-48.4-0.3-60,8.5c-6.5,5-8.6,10.7-9.1,14.6
	c-1.5,10.5,5.9,22,10.4,28c12.7,16.9,31.4,28.5,49.8,31.1c2.7,0.4,5.3,0.5,8,0.5C1053.1,854.7,1081.1,830.8,1083.5,813.1z"/>
<path class="st2" d="M1083.1,1293.1c40.1-89.1,90-200,32.5-466.1c-11.1-51.4-37.9-81.3-81.7-91.3c-96.2-22-231,50.2-260.1,76
	c0.3,5.8,0.7,13.2,1.2,21.6c3.6,60.2,10.2,172.3-7.8,301c-12.8,91.9,15.2,181.6,77,246.1l0,0c48.6,50.7,112.5,78.8,178.2,79
	c7.5-31,19.7-63.6,32.8-98.7l5.2-13.9C1067,1328.8,1074.8,1311.5,1083.1,1293.1z M1022.4,854.7c-2.6,0-5.3-0.2-8-0.5
	c-18.4-2.6-37-14.2-49.8-31.1c-4.5-6-11.8-17.5-10.4-28c0.5-3.9,2.6-9.7,9.1-14.6c11.6-8.8,34.6-12.1,60-8.5l0,0
	c31.1,4.3,63.3,19.1,60.2,41.2C1081.1,830.8,1053.1,854.7,1022.4,854.7z"/>
<path class="st1" d="M1801.5,754.4c-29.2,4.1-57.6,17.3-55.2,34.6c1.9,13.5,26.3,36.6,55.2,36.6c2.4,0,4.9-0.2,7.4-0.5
	c19.3-2.7,33.4-14.9,40.1-22c10.2-10.8,16.2-22.7,15.1-30.5C1861.6,755.3,1830.7,750.4,1801.5,754.4z"/>
<path class="st2" d="M1918.4,823.4c5-32.7,9.8-64.1,10.4-98.6v0c-137.8-17.1-192.7,14.7-214.4,45.6
	c-72.6,103.8,69.3,358.3,129.8,467c15.6,27.9,26.8,48.1,32,60.6c5.4,13,11.5,25.7,18.5,38c41.7-88.7,30.9-178.6,20.4-265.9
	c-5.2-43.2-10.6-87.9-9.2-130.9C1907.3,895,1913,858.6,1918.4,823.4z M1849,803.2c-6.7,7.1-20.9,19.3-40.1,22
	c-2.5,0.4-4.9,0.5-7.4,0.5c-28.9,0-53.3-23.1-55.2-36.6c-2.4-17.4,26-30.6,55.2-34.6c29.3-4.1,60.1,0.9,62.6,18.2
	C1865.1,780.4,1859.2,792.4,1849,803.2z"/>
<path class="st2" d="M1829.2,362.2c111.2,129.4,165.7,272.4,170.2,320.1c0.7,7.3,0.2,13.5-1.2,18.7c1.8,49.8-4.6,92.1-10.9,132.9
	c-5.1,33.1-10.4,67.4-11.7,107.4c-1.2,37.7,3.6,77.8,8.7,120.3c12.4,103.6,26.4,220.3-45.1,338.4l3.5,4.4c2.8,3.5,5.6,7,8.4,10.6
	c276.6-435.3,372.2-939.8,285.4-1050.7c-113.1-144.6-272.9-220.1-474.9-224.6h0c-79.7-1.8-151,8.3-203,19.1
	C1679.7,212.3,1768.4,291.5,1829.2,362.2z"/>
<path class="st2" d="M1134.1,1549.1c-18.9-7.9-29.4-12.2-52.2,13.4l0,0c-15.3,17.1-26.4,31.2-36.2,43.6
	c-42.6,54.1-62.1,72.4-188.4,98.4c-26.1,5.4-41.1,10.8-49.6,14.8c10.1,6.9,27.4,15.2,46.6,20c93.1,23.3,222.8,24.9,311.7-99.7
	c10.5-14.8,7.3-33.7,4.5-43.7C1164.4,1574.7,1149.4,1555.4,1134.1,1549.1z"/>
<path class="st2" d="M793.8,1428.7c-76.7-80-111.6-190.8-95.7-304c17-121.8,10.7-229.4,7.2-287.2c-0.9-15.8-1.6-27.3-1.6-35.4
	c-0.5-21-5.2-364.7,194-565.8c1.7-1.8,3.5-3.4,5.3-5.1c-121.4-39.6-423.5-117.5-607.2,12.8C182.9,324,131,472.9,141.7,686.7
	c3.4,67.6,46.2,308.7,119.3,548.4c84.6,277.1,180.5,451.8,263.1,479.3c12.7,4.2,51.3,17.1,107.1-50.1l0,0
	c79-95,153.1-175.8,187.2-212.3C809.9,1444.7,801.7,1436.9,793.8,1428.7z"/>
<path class="st2" d="M1888.3,1448.1c-22.4-27.9-53-66.2-76.6-123.5c-3.6-8.8-15.1-29.4-28.4-53.3
	c-72.6-130.3-223.8-401.3-126.1-540.9c44.9-64.2,133.5-89.9,263.7-76.7c-17.3-51.5-60.7-146.9-140.9-241.5
	c-93-109.9-257.8-241.8-514.8-246c-130.4-2.2-237.5,37.9-317.8,118.9C819.8,413.9,785.7,617.4,776.6,726.2
	c5.9-3.3,12.3-6.7,19.3-10.2c32.4-16.4,97.3-45,168.2-52.4c118.3-12.3,196.3,40.5,219.7,148.6c62.4,288.5,4.9,416.3-37.1,509.5
	c-7.8,17.3-15.1,33.6-21,49.3l-5.2,14c-12.4,33.2-23.8,63.9-30.4,91c30.9-7.9,56.6,2.7,70.6,8.6c35.3,14.6,64.7,49.9,76.7,92
	c1.9,6.7,3.4,13.6,4.3,20.5c1.1,3.5,1.6,7.2,1.5,11.1c-8.1,289.7,3.3,552.1,26.6,610.2c36,90.1,90.7,168.9,245.2,135.8l0,0
	c149-32,202-85.6,226.8-229.6c18.8-109,55.8-417.6,61.1-483.5c-6.5-131.3,64.4-157.6,103.8-169
	C1901.8,1465,1895.2,1456.7,1888.3,1448.1z"/>
<path class="st2" d="M1956,1540.5c-3.6-2.3-6.8-4.7-9.8-7.2c-4.8,1.7-9.7,3.1-14.8,4.5c-32.2,9.1-62.7,17.6-58.7,99.5
	c8.5,6.9,44.5,18.2,115.4,14.9c64.1-3,131.6-17.1,172-35.8v0c46.9-21.8,80-46,99.3-64.1l-1.6,0.3
	C2114.4,1582.1,2012.9,1578.1,1956,1540.5z"/>
</svg>
